M48
; DRILL file {KiCad 9.0.6} date 2025-12-09T21:34:46+0100
; FORMAT={-:-/ absolute / metric / decimal}
; #@! TF.CreationDate,2025-12-09T21:34:46+01:00
; #@! TF.GenerationSoftware,Kicad,Pcbnew,9.0.6
; #@! TF.FileFunction,Plated,1,2,PTH
FMAT,2
METRIC
; #@! TA.AperFunction,Plated,PTH,ViaDrill
T1C0.400
; #@! TA.AperFunction,Plated,PTH,ViaDrill
T2C0.600
; #@! TA.AperFunction,Plated,PTH,ComponentDrill
T3C0.750
; #@! TA.AperFunction,Plated,PTH,ViaDrill
T4C0.800
; #@! TA.AperFunction,Plated,PTH,ViaDrill
T5C1.000
; #@! TA.AperFunction,Plated,PTH,ComponentDrill
T6C1.020
%
G90
G05
T1
X160.655Y-113.411
X161.0Y-117.5
X161.0Y-125.0
X161.0Y-128.75
X161.0Y-136.25
X161.0Y-142.5
X161.0Y-150.25
X162.25Y-113.0
X162.56Y-148.082
X163.957Y-153.67
X165.608Y-137.795
X166.243Y-152.654
X166.25Y-113.0
X166.751Y-105.791
X167.386Y-149.606
X172.339Y-129.286
X174.117Y-136.906
X177.292Y-141.986
X179.451Y-124.206
X179.451Y-140.716
X180.25Y-134.366
X181.737Y-121.666
X182.499Y-126.746
X182.499Y-139.573
X183.261Y-131.953
X185.801Y-133.096
X186.436Y-148.844
X186.944Y-147.066
X188.468Y-115.25
X191.77Y-121.666
X191.897Y-136.906
X192.405Y-126.746
X192.532Y-131.445
X192.75Y-139.0
X193.167Y-146.685
X193.548Y-145.034
X193.548Y-152.146
X195.5Y-134.0
X196.088Y-141.478
X196.215Y-131.191
X196.25Y-140.0
X196.342Y-121.666
X196.342Y-126.238
X196.342Y-149.098
X196.469Y-160.655
X196.469Y-164.592
X198.75Y-115.75
X199.009Y-131.953
X202.05Y-145.288
X202.057Y-151.638
X202.184Y-122.555
X202.374Y-126.936
X204.75Y-139.75
X206.248Y-122.428
X206.248Y-131.572
X206.375Y-126.238
X206.502Y-115.443
X214.503Y-114.808
X217.5Y-130.556
X219.5Y-129.413
X221.488Y-135.255
X225.5Y-128.27
T2
X204.089Y-107.696
X207.772Y-107.696
X211.582Y-109.22
X214.757Y-110.236
T3
X151.5Y-110.5
X151.5Y-112.5
X151.5Y-118.5
X151.5Y-120.5
X151.5Y-122.5
X151.5Y-124.5
X151.5Y-126.5
X151.5Y-128.5
X151.5Y-130.5
X151.5Y-132.5
X151.5Y-138.5
X151.5Y-140.5
X151.5Y-146.5
X151.5Y-148.5
X151.5Y-150.5
X151.5Y-152.5
X151.5Y-158.5
X151.5Y-160.5
X151.5Y-162.5
X157.2Y-163.5
X157.2Y-165.5
X163.5Y-161.5
X163.5Y-163.5
X163.5Y-165.5
X172.25Y-109.0
X174.25Y-109.0
X180.0Y-109.0
X182.0Y-109.0
X190.25Y-109.0
X192.25Y-109.0
X198.0Y-109.0
X200.0Y-109.0
X207.5Y-158.5
X207.5Y-164.5
X209.5Y-138.5
X209.5Y-158.5
X209.5Y-164.5
X210.5Y-145.5
X210.5Y-151.5
X211.5Y-138.5
X212.5Y-145.5
X212.5Y-151.5
X213.5Y-118.75
X213.5Y-138.5
X215.5Y-118.75
X215.5Y-138.5
X215.5Y-158.5
X215.5Y-164.5
X217.5Y-118.75
X217.5Y-126.25
X217.5Y-132.5
X217.5Y-158.5
X217.5Y-164.5
X218.25Y-145.5
X218.25Y-151.5
X219.5Y-126.25
X219.5Y-132.5
X220.25Y-145.5
X220.25Y-151.5
X221.5Y-126.25
X221.5Y-132.5
X221.5Y-138.5
X223.5Y-111.75
X223.5Y-118.75
X223.5Y-126.25
X223.5Y-132.5
X223.5Y-138.5
X223.5Y-158.5
X223.5Y-164.5
X225.5Y-111.75
X225.5Y-118.75
X225.5Y-126.25
X225.5Y-132.5
X225.5Y-138.5
X225.5Y-158.5
X225.5Y-164.5
X226.0Y-145.5
X226.0Y-151.5
X227.5Y-111.75
X227.5Y-118.75
X227.5Y-126.25
X227.5Y-132.5
X227.5Y-138.5
X228.0Y-145.5
X228.0Y-151.5
T4
X163.576Y-155.448
T5
X159.75Y-157.0
X166.75Y-157.5
T6
X170.688Y-117.856
X170.688Y-120.396
X170.688Y-122.936
X170.688Y-125.476
X170.688Y-128.016
X170.688Y-130.556
X170.688Y-133.096
X170.688Y-135.636
X170.688Y-138.176
X170.688Y-140.716
X170.688Y-143.256
X170.688Y-145.796
X170.688Y-148.336
X170.688Y-150.876
X170.688Y-153.416
X170.688Y-155.956
X170.688Y-158.496
X170.688Y-161.036
X170.688Y-163.576
X170.688Y-166.116
X173.228Y-155.956
X173.228Y-158.496
X188.468Y-117.856
X188.468Y-120.396
X188.468Y-122.936
X188.468Y-125.476
X188.468Y-128.016
X188.468Y-130.556
X188.468Y-133.096
X188.468Y-135.636
X188.468Y-138.176
X188.468Y-140.716
X188.468Y-143.256
X188.468Y-145.796
X188.468Y-148.336
X188.468Y-150.876
X188.468Y-153.416
X188.468Y-155.956
X188.468Y-158.496
X188.468Y-161.036
X188.468Y-163.576
X188.468Y-166.116
M30
