%TF.GenerationSoftware,KiCad,Pcbnew,9.0.6*%
%TF.CreationDate,2025-12-09T21:34:12+01:00*%
%TF.ProjectId,rccarcontrol,72636361-7263-46f6-9e74-726f6c2e6b69,rev?*%
%TF.SameCoordinates,Original*%
%TF.FileFunction,Legend,Bot*%
%TF.FilePolarity,Positive*%
%FSLAX46Y46*%
G04 Gerber Fmt 4.6, Leading zero omitted, Abs format (unit mm)*
G04 Created by KiCad (PCBNEW 9.0.6) date 2025-12-09 21:34:12*
%MOMM*%
%LPD*%
G01*
G04 APERTURE LIST*
%ADD10C,0.150000*%
%ADD11C,0.300000*%
%ADD12C,0.120000*%
G04 APERTURE END LIST*
D10*
X214806077Y-166619819D02*
X214234649Y-166619819D01*
X214520363Y-167619819D02*
X214520363Y-166619819D01*
X213710839Y-166619819D02*
X213520363Y-166619819D01*
X213520363Y-166619819D02*
X213425125Y-166667438D01*
X213425125Y-166667438D02*
X213329887Y-166762676D01*
X213329887Y-166762676D02*
X213282268Y-166953152D01*
X213282268Y-166953152D02*
X213282268Y-167286485D01*
X213282268Y-167286485D02*
X213329887Y-167476961D01*
X213329887Y-167476961D02*
X213425125Y-167572200D01*
X213425125Y-167572200D02*
X213520363Y-167619819D01*
X213520363Y-167619819D02*
X213710839Y-167619819D01*
X213710839Y-167619819D02*
X213806077Y-167572200D01*
X213806077Y-167572200D02*
X213901315Y-167476961D01*
X213901315Y-167476961D02*
X213948934Y-167286485D01*
X213948934Y-167286485D02*
X213948934Y-166953152D01*
X213948934Y-166953152D02*
X213901315Y-166762676D01*
X213901315Y-166762676D02*
X213806077Y-166667438D01*
X213806077Y-166667438D02*
X213710839Y-166619819D01*
X212853696Y-167619819D02*
X212853696Y-166619819D01*
X212853696Y-166619819D02*
X212472744Y-166619819D01*
X212472744Y-166619819D02*
X212377506Y-166667438D01*
X212377506Y-166667438D02*
X212329887Y-166715057D01*
X212329887Y-166715057D02*
X212282268Y-166810295D01*
X212282268Y-166810295D02*
X212282268Y-166953152D01*
X212282268Y-166953152D02*
X212329887Y-167048390D01*
X212329887Y-167048390D02*
X212377506Y-167096009D01*
X212377506Y-167096009D02*
X212472744Y-167143628D01*
X212472744Y-167143628D02*
X212853696Y-167143628D01*
X211234648Y-166619819D02*
X210663220Y-166619819D01*
X210948934Y-167619819D02*
X210948934Y-166619819D01*
X210329886Y-166619819D02*
X210329886Y-167429342D01*
X210329886Y-167429342D02*
X210282267Y-167524580D01*
X210282267Y-167524580D02*
X210234648Y-167572200D01*
X210234648Y-167572200D02*
X210139410Y-167619819D01*
X210139410Y-167619819D02*
X209948934Y-167619819D01*
X209948934Y-167619819D02*
X209853696Y-167572200D01*
X209853696Y-167572200D02*
X209806077Y-167524580D01*
X209806077Y-167524580D02*
X209758458Y-167429342D01*
X209758458Y-167429342D02*
X209758458Y-166619819D01*
X208710839Y-167619819D02*
X209044172Y-167143628D01*
X209282267Y-167619819D02*
X209282267Y-166619819D01*
X209282267Y-166619819D02*
X208901315Y-166619819D01*
X208901315Y-166619819D02*
X208806077Y-166667438D01*
X208806077Y-166667438D02*
X208758458Y-166715057D01*
X208758458Y-166715057D02*
X208710839Y-166810295D01*
X208710839Y-166810295D02*
X208710839Y-166953152D01*
X208710839Y-166953152D02*
X208758458Y-167048390D01*
X208758458Y-167048390D02*
X208806077Y-167096009D01*
X208806077Y-167096009D02*
X208901315Y-167143628D01*
X208901315Y-167143628D02*
X209282267Y-167143628D01*
X208282267Y-167619819D02*
X208282267Y-166619819D01*
X208282267Y-166619819D02*
X207710839Y-167619819D01*
X207710839Y-167619819D02*
X207710839Y-166619819D01*
X190758458Y-111869819D02*
X190091792Y-111869819D01*
X190091792Y-111869819D02*
X190520363Y-112869819D01*
X189710839Y-112774580D02*
X189663220Y-112822200D01*
X189663220Y-112822200D02*
X189710839Y-112869819D01*
X189710839Y-112869819D02*
X189758458Y-112822200D01*
X189758458Y-112822200D02*
X189710839Y-112774580D01*
X189710839Y-112774580D02*
X189710839Y-112869819D01*
X189282268Y-111965057D02*
X189234649Y-111917438D01*
X189234649Y-111917438D02*
X189139411Y-111869819D01*
X189139411Y-111869819D02*
X188901316Y-111869819D01*
X188901316Y-111869819D02*
X188806078Y-111917438D01*
X188806078Y-111917438D02*
X188758459Y-111965057D01*
X188758459Y-111965057D02*
X188710840Y-112060295D01*
X188710840Y-112060295D02*
X188710840Y-112155533D01*
X188710840Y-112155533D02*
X188758459Y-112298390D01*
X188758459Y-112298390D02*
X189329887Y-112869819D01*
X189329887Y-112869819D02*
X188710840Y-112869819D01*
X188425125Y-111869819D02*
X188091792Y-112869819D01*
X188091792Y-112869819D02*
X187758459Y-111869819D01*
X218619819Y-163562969D02*
X218619819Y-163086779D01*
X218619819Y-163086779D02*
X219096009Y-163039160D01*
X219096009Y-163039160D02*
X219048390Y-163086779D01*
X219048390Y-163086779D02*
X219000771Y-163182017D01*
X219000771Y-163182017D02*
X219000771Y-163420112D01*
X219000771Y-163420112D02*
X219048390Y-163515350D01*
X219048390Y-163515350D02*
X219096009Y-163562969D01*
X219096009Y-163562969D02*
X219191247Y-163610588D01*
X219191247Y-163610588D02*
X219429342Y-163610588D01*
X219429342Y-163610588D02*
X219524580Y-163562969D01*
X219524580Y-163562969D02*
X219572200Y-163515350D01*
X219572200Y-163515350D02*
X219619819Y-163420112D01*
X219619819Y-163420112D02*
X219619819Y-163182017D01*
X219619819Y-163182017D02*
X219572200Y-163086779D01*
X219572200Y-163086779D02*
X219524580Y-163039160D01*
X218619819Y-163896303D02*
X219619819Y-164229636D01*
X219619819Y-164229636D02*
X218619819Y-164562969D01*
X221619819Y-146312969D02*
X221619819Y-145836779D01*
X221619819Y-145836779D02*
X222096009Y-145789160D01*
X222096009Y-145789160D02*
X222048390Y-145836779D01*
X222048390Y-145836779D02*
X222000771Y-145932017D01*
X222000771Y-145932017D02*
X222000771Y-146170112D01*
X222000771Y-146170112D02*
X222048390Y-146265350D01*
X222048390Y-146265350D02*
X222096009Y-146312969D01*
X222096009Y-146312969D02*
X222191247Y-146360588D01*
X222191247Y-146360588D02*
X222429342Y-146360588D01*
X222429342Y-146360588D02*
X222524580Y-146312969D01*
X222524580Y-146312969D02*
X222572200Y-146265350D01*
X222572200Y-146265350D02*
X222619819Y-146170112D01*
X222619819Y-146170112D02*
X222619819Y-145932017D01*
X222619819Y-145932017D02*
X222572200Y-145836779D01*
X222572200Y-145836779D02*
X222524580Y-145789160D01*
X221619819Y-146646303D02*
X222619819Y-146979636D01*
X222619819Y-146979636D02*
X221619819Y-147312969D01*
X221369819Y-162991541D02*
X221369819Y-163658207D01*
X221369819Y-163658207D02*
X222369819Y-163229636D01*
X222274580Y-164039160D02*
X222322200Y-164086779D01*
X222322200Y-164086779D02*
X222369819Y-164039160D01*
X222369819Y-164039160D02*
X222322200Y-163991541D01*
X222322200Y-163991541D02*
X222274580Y-164039160D01*
X222274580Y-164039160D02*
X222369819Y-164039160D01*
X221465057Y-164467731D02*
X221417438Y-164515350D01*
X221417438Y-164515350D02*
X221369819Y-164610588D01*
X221369819Y-164610588D02*
X221369819Y-164848683D01*
X221369819Y-164848683D02*
X221417438Y-164943921D01*
X221417438Y-164943921D02*
X221465057Y-164991540D01*
X221465057Y-164991540D02*
X221560295Y-165039159D01*
X221560295Y-165039159D02*
X221655533Y-165039159D01*
X221655533Y-165039159D02*
X221798390Y-164991540D01*
X221798390Y-164991540D02*
X222369819Y-164420112D01*
X222369819Y-164420112D02*
X222369819Y-165039159D01*
X221369819Y-165324874D02*
X222369819Y-165658207D01*
X222369819Y-165658207D02*
X221369819Y-165991540D01*
X224960839Y-167572200D02*
X224817982Y-167619819D01*
X224817982Y-167619819D02*
X224579887Y-167619819D01*
X224579887Y-167619819D02*
X224484649Y-167572200D01*
X224484649Y-167572200D02*
X224437030Y-167524580D01*
X224437030Y-167524580D02*
X224389411Y-167429342D01*
X224389411Y-167429342D02*
X224389411Y-167334104D01*
X224389411Y-167334104D02*
X224437030Y-167238866D01*
X224437030Y-167238866D02*
X224484649Y-167191247D01*
X224484649Y-167191247D02*
X224579887Y-167143628D01*
X224579887Y-167143628D02*
X224770363Y-167096009D01*
X224770363Y-167096009D02*
X224865601Y-167048390D01*
X224865601Y-167048390D02*
X224913220Y-167000771D01*
X224913220Y-167000771D02*
X224960839Y-166905533D01*
X224960839Y-166905533D02*
X224960839Y-166810295D01*
X224960839Y-166810295D02*
X224913220Y-166715057D01*
X224913220Y-166715057D02*
X224865601Y-166667438D01*
X224865601Y-166667438D02*
X224770363Y-166619819D01*
X224770363Y-166619819D02*
X224532268Y-166619819D01*
X224532268Y-166619819D02*
X224389411Y-166667438D01*
X223960839Y-167619819D02*
X223960839Y-166619819D01*
X223484649Y-167619819D02*
X223484649Y-166619819D01*
X223484649Y-166619819D02*
X223246554Y-166619819D01*
X223246554Y-166619819D02*
X223103697Y-166667438D01*
X223103697Y-166667438D02*
X223008459Y-166762676D01*
X223008459Y-166762676D02*
X222960840Y-166857914D01*
X222960840Y-166857914D02*
X222913221Y-167048390D01*
X222913221Y-167048390D02*
X222913221Y-167191247D01*
X222913221Y-167191247D02*
X222960840Y-167381723D01*
X222960840Y-167381723D02*
X223008459Y-167476961D01*
X223008459Y-167476961D02*
X223103697Y-167572200D01*
X223103697Y-167572200D02*
X223246554Y-167619819D01*
X223246554Y-167619819D02*
X223484649Y-167619819D01*
X222484649Y-167096009D02*
X222151316Y-167096009D01*
X222008459Y-167619819D02*
X222484649Y-167619819D01*
X222484649Y-167619819D02*
X222484649Y-166619819D01*
X222484649Y-166619819D02*
X222008459Y-166619819D01*
X220960839Y-166619819D02*
X220389411Y-166619819D01*
X220675125Y-167619819D02*
X220675125Y-166619819D01*
X220056077Y-166619819D02*
X220056077Y-167429342D01*
X220056077Y-167429342D02*
X220008458Y-167524580D01*
X220008458Y-167524580D02*
X219960839Y-167572200D01*
X219960839Y-167572200D02*
X219865601Y-167619819D01*
X219865601Y-167619819D02*
X219675125Y-167619819D01*
X219675125Y-167619819D02*
X219579887Y-167572200D01*
X219579887Y-167572200D02*
X219532268Y-167524580D01*
X219532268Y-167524580D02*
X219484649Y-167429342D01*
X219484649Y-167429342D02*
X219484649Y-166619819D01*
X218437030Y-167619819D02*
X218770363Y-167143628D01*
X219008458Y-167619819D02*
X219008458Y-166619819D01*
X219008458Y-166619819D02*
X218627506Y-166619819D01*
X218627506Y-166619819D02*
X218532268Y-166667438D01*
X218532268Y-166667438D02*
X218484649Y-166715057D01*
X218484649Y-166715057D02*
X218437030Y-166810295D01*
X218437030Y-166810295D02*
X218437030Y-166953152D01*
X218437030Y-166953152D02*
X218484649Y-167048390D01*
X218484649Y-167048390D02*
X218532268Y-167096009D01*
X218532268Y-167096009D02*
X218627506Y-167143628D01*
X218627506Y-167143628D02*
X219008458Y-167143628D01*
X218008458Y-167619819D02*
X218008458Y-166619819D01*
X218008458Y-166619819D02*
X217437030Y-167619819D01*
X217437030Y-167619819D02*
X217437030Y-166619819D01*
X206758458Y-112369819D02*
X206091792Y-112369819D01*
X206091792Y-112369819D02*
X206520363Y-113369819D01*
X205710839Y-113274580D02*
X205663220Y-113322200D01*
X205663220Y-113322200D02*
X205710839Y-113369819D01*
X205710839Y-113369819D02*
X205758458Y-113322200D01*
X205758458Y-113322200D02*
X205710839Y-113274580D01*
X205710839Y-113274580D02*
X205710839Y-113369819D01*
X205282268Y-112465057D02*
X205234649Y-112417438D01*
X205234649Y-112417438D02*
X205139411Y-112369819D01*
X205139411Y-112369819D02*
X204901316Y-112369819D01*
X204901316Y-112369819D02*
X204806078Y-112417438D01*
X204806078Y-112417438D02*
X204758459Y-112465057D01*
X204758459Y-112465057D02*
X204710840Y-112560295D01*
X204710840Y-112560295D02*
X204710840Y-112655533D01*
X204710840Y-112655533D02*
X204758459Y-112798390D01*
X204758459Y-112798390D02*
X205329887Y-113369819D01*
X205329887Y-113369819D02*
X204710840Y-113369819D01*
X204425125Y-112369819D02*
X204091792Y-113369819D01*
X204091792Y-113369819D02*
X203758459Y-112369819D01*
X165913220Y-155596009D02*
X165579887Y-155596009D01*
X165437030Y-156119819D02*
X165913220Y-156119819D01*
X165913220Y-156119819D02*
X165913220Y-155119819D01*
X165913220Y-155119819D02*
X165437030Y-155119819D01*
X165103696Y-155119819D02*
X164437030Y-156119819D01*
X164437030Y-155119819D02*
X165103696Y-156119819D01*
X164198934Y-155119819D02*
X163627506Y-155119819D01*
X163913220Y-156119819D02*
X163913220Y-155119819D01*
X163294172Y-155738866D02*
X162532268Y-155738866D01*
X162056077Y-155453152D02*
X161294173Y-155738866D01*
X161294173Y-155738866D02*
X162056077Y-156024580D01*
X160341792Y-155119819D02*
X160817982Y-155119819D01*
X160817982Y-155119819D02*
X160865601Y-155596009D01*
X160865601Y-155596009D02*
X160817982Y-155548390D01*
X160817982Y-155548390D02*
X160722744Y-155500771D01*
X160722744Y-155500771D02*
X160484649Y-155500771D01*
X160484649Y-155500771D02*
X160389411Y-155548390D01*
X160389411Y-155548390D02*
X160341792Y-155596009D01*
X160341792Y-155596009D02*
X160294173Y-155691247D01*
X160294173Y-155691247D02*
X160294173Y-155929342D01*
X160294173Y-155929342D02*
X160341792Y-156024580D01*
X160341792Y-156024580D02*
X160389411Y-156072200D01*
X160389411Y-156072200D02*
X160484649Y-156119819D01*
X160484649Y-156119819D02*
X160722744Y-156119819D01*
X160722744Y-156119819D02*
X160817982Y-156072200D01*
X160817982Y-156072200D02*
X160865601Y-156024580D01*
X160008458Y-155119819D02*
X159675125Y-156119819D01*
X159675125Y-156119819D02*
X159341792Y-155119819D01*
X204687030Y-108119819D02*
X205163220Y-108119819D01*
X205163220Y-108119819D02*
X205210839Y-108596009D01*
X205210839Y-108596009D02*
X205163220Y-108548390D01*
X205163220Y-108548390D02*
X205067982Y-108500771D01*
X205067982Y-108500771D02*
X204829887Y-108500771D01*
X204829887Y-108500771D02*
X204734649Y-108548390D01*
X204734649Y-108548390D02*
X204687030Y-108596009D01*
X204687030Y-108596009D02*
X204639411Y-108691247D01*
X204639411Y-108691247D02*
X204639411Y-108929342D01*
X204639411Y-108929342D02*
X204687030Y-109024580D01*
X204687030Y-109024580D02*
X204734649Y-109072200D01*
X204734649Y-109072200D02*
X204829887Y-109119819D01*
X204829887Y-109119819D02*
X205067982Y-109119819D01*
X205067982Y-109119819D02*
X205163220Y-109072200D01*
X205163220Y-109072200D02*
X205210839Y-109024580D01*
X204353696Y-108119819D02*
X204020363Y-109119819D01*
X204020363Y-109119819D02*
X203687030Y-108119819D01*
X188687030Y-107619819D02*
X189163220Y-107619819D01*
X189163220Y-107619819D02*
X189210839Y-108096009D01*
X189210839Y-108096009D02*
X189163220Y-108048390D01*
X189163220Y-108048390D02*
X189067982Y-108000771D01*
X189067982Y-108000771D02*
X188829887Y-108000771D01*
X188829887Y-108000771D02*
X188734649Y-108048390D01*
X188734649Y-108048390D02*
X188687030Y-108096009D01*
X188687030Y-108096009D02*
X188639411Y-108191247D01*
X188639411Y-108191247D02*
X188639411Y-108429342D01*
X188639411Y-108429342D02*
X188687030Y-108524580D01*
X188687030Y-108524580D02*
X188734649Y-108572200D01*
X188734649Y-108572200D02*
X188829887Y-108619819D01*
X188829887Y-108619819D02*
X189067982Y-108619819D01*
X189067982Y-108619819D02*
X189163220Y-108572200D01*
X189163220Y-108572200D02*
X189210839Y-108524580D01*
X188353696Y-107619819D02*
X188020363Y-108619819D01*
X188020363Y-108619819D02*
X187687030Y-107619819D01*
X156091792Y-157369819D02*
X156425125Y-156893628D01*
X156663220Y-157369819D02*
X156663220Y-156369819D01*
X156663220Y-156369819D02*
X156282268Y-156369819D01*
X156282268Y-156369819D02*
X156187030Y-156417438D01*
X156187030Y-156417438D02*
X156139411Y-156465057D01*
X156139411Y-156465057D02*
X156091792Y-156560295D01*
X156091792Y-156560295D02*
X156091792Y-156703152D01*
X156091792Y-156703152D02*
X156139411Y-156798390D01*
X156139411Y-156798390D02*
X156187030Y-156846009D01*
X156187030Y-156846009D02*
X156282268Y-156893628D01*
X156282268Y-156893628D02*
X156663220Y-156893628D01*
X155758458Y-156369819D02*
X155091792Y-157369819D01*
X155091792Y-156369819D02*
X155758458Y-157369819D01*
X154710839Y-156988866D02*
X153948935Y-156988866D01*
X153472744Y-156703152D02*
X152710840Y-156988866D01*
X152710840Y-156988866D02*
X153472744Y-157274580D01*
X151758459Y-156369819D02*
X152234649Y-156369819D01*
X152234649Y-156369819D02*
X152282268Y-156846009D01*
X152282268Y-156846009D02*
X152234649Y-156798390D01*
X152234649Y-156798390D02*
X152139411Y-156750771D01*
X152139411Y-156750771D02*
X151901316Y-156750771D01*
X151901316Y-156750771D02*
X151806078Y-156798390D01*
X151806078Y-156798390D02*
X151758459Y-156846009D01*
X151758459Y-156846009D02*
X151710840Y-156941247D01*
X151710840Y-156941247D02*
X151710840Y-157179342D01*
X151710840Y-157179342D02*
X151758459Y-157274580D01*
X151758459Y-157274580D02*
X151806078Y-157322200D01*
X151806078Y-157322200D02*
X151901316Y-157369819D01*
X151901316Y-157369819D02*
X152139411Y-157369819D01*
X152139411Y-157369819D02*
X152234649Y-157322200D01*
X152234649Y-157322200D02*
X152282268Y-157274580D01*
X151425125Y-156369819D02*
X151091792Y-157369819D01*
X151091792Y-157369819D02*
X150758459Y-156369819D01*
X204460839Y-114834104D02*
X203984649Y-114834104D01*
X204556077Y-115119819D02*
X204222744Y-114119819D01*
X204222744Y-114119819D02*
X203889411Y-115119819D01*
X203556077Y-114119819D02*
X203556077Y-114929342D01*
X203556077Y-114929342D02*
X203508458Y-115024580D01*
X203508458Y-115024580D02*
X203460839Y-115072200D01*
X203460839Y-115072200D02*
X203365601Y-115119819D01*
X203365601Y-115119819D02*
X203175125Y-115119819D01*
X203175125Y-115119819D02*
X203079887Y-115072200D01*
X203079887Y-115072200D02*
X203032268Y-115024580D01*
X203032268Y-115024580D02*
X202984649Y-114929342D01*
X202984649Y-114929342D02*
X202984649Y-114119819D01*
X202603696Y-114119819D02*
X201937030Y-115119819D01*
X201937030Y-114119819D02*
X202603696Y-115119819D01*
X200841791Y-114215057D02*
X200794172Y-114167438D01*
X200794172Y-114167438D02*
X200698934Y-114119819D01*
X200698934Y-114119819D02*
X200460839Y-114119819D01*
X200460839Y-114119819D02*
X200365601Y-114167438D01*
X200365601Y-114167438D02*
X200317982Y-114215057D01*
X200317982Y-114215057D02*
X200270363Y-114310295D01*
X200270363Y-114310295D02*
X200270363Y-114405533D01*
X200270363Y-114405533D02*
X200317982Y-114548390D01*
X200317982Y-114548390D02*
X200889410Y-115119819D01*
X200889410Y-115119819D02*
X200270363Y-115119819D01*
D11*
X206050828Y-120964285D02*
X205336542Y-120464285D01*
X206050828Y-120107142D02*
X204550828Y-120107142D01*
X204550828Y-120107142D02*
X204550828Y-120678571D01*
X204550828Y-120678571D02*
X204622257Y-120821428D01*
X204622257Y-120821428D02*
X204693685Y-120892857D01*
X204693685Y-120892857D02*
X204836542Y-120964285D01*
X204836542Y-120964285D02*
X205050828Y-120964285D01*
X205050828Y-120964285D02*
X205193685Y-120892857D01*
X205193685Y-120892857D02*
X205265114Y-120821428D01*
X205265114Y-120821428D02*
X205336542Y-120678571D01*
X205336542Y-120678571D02*
X205336542Y-120107142D01*
X205907971Y-122464285D02*
X205979400Y-122392857D01*
X205979400Y-122392857D02*
X206050828Y-122178571D01*
X206050828Y-122178571D02*
X206050828Y-122035714D01*
X206050828Y-122035714D02*
X205979400Y-121821428D01*
X205979400Y-121821428D02*
X205836542Y-121678571D01*
X205836542Y-121678571D02*
X205693685Y-121607142D01*
X205693685Y-121607142D02*
X205407971Y-121535714D01*
X205407971Y-121535714D02*
X205193685Y-121535714D01*
X205193685Y-121535714D02*
X204907971Y-121607142D01*
X204907971Y-121607142D02*
X204765114Y-121678571D01*
X204765114Y-121678571D02*
X204622257Y-121821428D01*
X204622257Y-121821428D02*
X204550828Y-122035714D01*
X204550828Y-122035714D02*
X204550828Y-122178571D01*
X204550828Y-122178571D02*
X204622257Y-122392857D01*
X204622257Y-122392857D02*
X204693685Y-122464285D01*
X204550828Y-124035714D02*
X204550828Y-124892857D01*
X206050828Y-124464285D02*
X204550828Y-124464285D01*
X206050828Y-126249999D02*
X205336542Y-125749999D01*
X206050828Y-125392856D02*
X204550828Y-125392856D01*
X204550828Y-125392856D02*
X204550828Y-125964285D01*
X204550828Y-125964285D02*
X204622257Y-126107142D01*
X204622257Y-126107142D02*
X204693685Y-126178571D01*
X204693685Y-126178571D02*
X204836542Y-126249999D01*
X204836542Y-126249999D02*
X205050828Y-126249999D01*
X205050828Y-126249999D02*
X205193685Y-126178571D01*
X205193685Y-126178571D02*
X205265114Y-126107142D01*
X205265114Y-126107142D02*
X205336542Y-125964285D01*
X205336542Y-125964285D02*
X205336542Y-125392856D01*
X204550828Y-126892856D02*
X205765114Y-126892856D01*
X205765114Y-126892856D02*
X205907971Y-126964285D01*
X205907971Y-126964285D02*
X205979400Y-127035714D01*
X205979400Y-127035714D02*
X206050828Y-127178571D01*
X206050828Y-127178571D02*
X206050828Y-127464285D01*
X206050828Y-127464285D02*
X205979400Y-127607142D01*
X205979400Y-127607142D02*
X205907971Y-127678571D01*
X205907971Y-127678571D02*
X205765114Y-127749999D01*
X205765114Y-127749999D02*
X204550828Y-127749999D01*
X205907971Y-129321428D02*
X205979400Y-129250000D01*
X205979400Y-129250000D02*
X206050828Y-129035714D01*
X206050828Y-129035714D02*
X206050828Y-128892857D01*
X206050828Y-128892857D02*
X205979400Y-128678571D01*
X205979400Y-128678571D02*
X205836542Y-128535714D01*
X205836542Y-128535714D02*
X205693685Y-128464285D01*
X205693685Y-128464285D02*
X205407971Y-128392857D01*
X205407971Y-128392857D02*
X205193685Y-128392857D01*
X205193685Y-128392857D02*
X204907971Y-128464285D01*
X204907971Y-128464285D02*
X204765114Y-128535714D01*
X204765114Y-128535714D02*
X204622257Y-128678571D01*
X204622257Y-128678571D02*
X204550828Y-128892857D01*
X204550828Y-128892857D02*
X204550828Y-129035714D01*
X204550828Y-129035714D02*
X204622257Y-129250000D01*
X204622257Y-129250000D02*
X204693685Y-129321428D01*
X206050828Y-129964285D02*
X204550828Y-129964285D01*
X206050828Y-130821428D02*
X205193685Y-130178571D01*
X204550828Y-130821428D02*
X205407971Y-129964285D01*
X206050828Y-133321428D02*
X206050828Y-132607142D01*
X206050828Y-132607142D02*
X204550828Y-132607142D01*
X206050828Y-133821428D02*
X204550828Y-133821428D01*
X204622257Y-135321429D02*
X204550828Y-135178572D01*
X204550828Y-135178572D02*
X204550828Y-134964286D01*
X204550828Y-134964286D02*
X204622257Y-134750000D01*
X204622257Y-134750000D02*
X204765114Y-134607143D01*
X204765114Y-134607143D02*
X204907971Y-134535714D01*
X204907971Y-134535714D02*
X205193685Y-134464286D01*
X205193685Y-134464286D02*
X205407971Y-134464286D01*
X205407971Y-134464286D02*
X205693685Y-134535714D01*
X205693685Y-134535714D02*
X205836542Y-134607143D01*
X205836542Y-134607143D02*
X205979400Y-134750000D01*
X205979400Y-134750000D02*
X206050828Y-134964286D01*
X206050828Y-134964286D02*
X206050828Y-135107143D01*
X206050828Y-135107143D02*
X205979400Y-135321429D01*
X205979400Y-135321429D02*
X205907971Y-135392857D01*
X205907971Y-135392857D02*
X205407971Y-135392857D01*
X205407971Y-135392857D02*
X205407971Y-135107143D01*
X206050828Y-136035714D02*
X204550828Y-136035714D01*
X205265114Y-136035714D02*
X205265114Y-136892857D01*
X206050828Y-136892857D02*
X204550828Y-136892857D01*
X204550828Y-137392858D02*
X204550828Y-138250001D01*
X206050828Y-137821429D02*
X204550828Y-137821429D01*
X205907971Y-140750000D02*
X205979400Y-140678572D01*
X205979400Y-140678572D02*
X206050828Y-140464286D01*
X206050828Y-140464286D02*
X206050828Y-140321429D01*
X206050828Y-140321429D02*
X205979400Y-140107143D01*
X205979400Y-140107143D02*
X205836542Y-139964286D01*
X205836542Y-139964286D02*
X205693685Y-139892857D01*
X205693685Y-139892857D02*
X205407971Y-139821429D01*
X205407971Y-139821429D02*
X205193685Y-139821429D01*
X205193685Y-139821429D02*
X204907971Y-139892857D01*
X204907971Y-139892857D02*
X204765114Y-139964286D01*
X204765114Y-139964286D02*
X204622257Y-140107143D01*
X204622257Y-140107143D02*
X204550828Y-140321429D01*
X204550828Y-140321429D02*
X204550828Y-140464286D01*
X204550828Y-140464286D02*
X204622257Y-140678572D01*
X204622257Y-140678572D02*
X204693685Y-140750000D01*
X204550828Y-141678572D02*
X204550828Y-141964286D01*
X204550828Y-141964286D02*
X204622257Y-142107143D01*
X204622257Y-142107143D02*
X204765114Y-142250000D01*
X204765114Y-142250000D02*
X205050828Y-142321429D01*
X205050828Y-142321429D02*
X205550828Y-142321429D01*
X205550828Y-142321429D02*
X205836542Y-142250000D01*
X205836542Y-142250000D02*
X205979400Y-142107143D01*
X205979400Y-142107143D02*
X206050828Y-141964286D01*
X206050828Y-141964286D02*
X206050828Y-141678572D01*
X206050828Y-141678572D02*
X205979400Y-141535715D01*
X205979400Y-141535715D02*
X205836542Y-141392857D01*
X205836542Y-141392857D02*
X205550828Y-141321429D01*
X205550828Y-141321429D02*
X205050828Y-141321429D01*
X205050828Y-141321429D02*
X204765114Y-141392857D01*
X204765114Y-141392857D02*
X204622257Y-141535715D01*
X204622257Y-141535715D02*
X204550828Y-141678572D01*
X206050828Y-142964286D02*
X204550828Y-142964286D01*
X204550828Y-142964286D02*
X206050828Y-143821429D01*
X206050828Y-143821429D02*
X204550828Y-143821429D01*
X204550828Y-144321430D02*
X204550828Y-145178573D01*
X206050828Y-144750001D02*
X204550828Y-144750001D01*
X206050828Y-146535715D02*
X205336542Y-146035715D01*
X206050828Y-145678572D02*
X204550828Y-145678572D01*
X204550828Y-145678572D02*
X204550828Y-146250001D01*
X204550828Y-146250001D02*
X204622257Y-146392858D01*
X204622257Y-146392858D02*
X204693685Y-146464287D01*
X204693685Y-146464287D02*
X204836542Y-146535715D01*
X204836542Y-146535715D02*
X205050828Y-146535715D01*
X205050828Y-146535715D02*
X205193685Y-146464287D01*
X205193685Y-146464287D02*
X205265114Y-146392858D01*
X205265114Y-146392858D02*
X205336542Y-146250001D01*
X205336542Y-146250001D02*
X205336542Y-145678572D01*
X204550828Y-147464287D02*
X204550828Y-147750001D01*
X204550828Y-147750001D02*
X204622257Y-147892858D01*
X204622257Y-147892858D02*
X204765114Y-148035715D01*
X204765114Y-148035715D02*
X205050828Y-148107144D01*
X205050828Y-148107144D02*
X205550828Y-148107144D01*
X205550828Y-148107144D02*
X205836542Y-148035715D01*
X205836542Y-148035715D02*
X205979400Y-147892858D01*
X205979400Y-147892858D02*
X206050828Y-147750001D01*
X206050828Y-147750001D02*
X206050828Y-147464287D01*
X206050828Y-147464287D02*
X205979400Y-147321430D01*
X205979400Y-147321430D02*
X205836542Y-147178572D01*
X205836542Y-147178572D02*
X205550828Y-147107144D01*
X205550828Y-147107144D02*
X205050828Y-147107144D01*
X205050828Y-147107144D02*
X204765114Y-147178572D01*
X204765114Y-147178572D02*
X204622257Y-147321430D01*
X204622257Y-147321430D02*
X204550828Y-147464287D01*
X206050828Y-149464287D02*
X206050828Y-148750001D01*
X206050828Y-148750001D02*
X204550828Y-148750001D01*
X204550828Y-150892859D02*
X206050828Y-151392859D01*
X206050828Y-151392859D02*
X204550828Y-151892859D01*
X206050828Y-154321430D02*
X206050828Y-153464287D01*
X206050828Y-153892858D02*
X204550828Y-153892858D01*
X204550828Y-153892858D02*
X204765114Y-153750001D01*
X204765114Y-153750001D02*
X204907971Y-153607144D01*
X204907971Y-153607144D02*
X204979400Y-153464287D01*
X205907971Y-154964286D02*
X205979400Y-155035715D01*
X205979400Y-155035715D02*
X206050828Y-154964286D01*
X206050828Y-154964286D02*
X205979400Y-154892858D01*
X205979400Y-154892858D02*
X205907971Y-154964286D01*
X205907971Y-154964286D02*
X206050828Y-154964286D01*
X204550828Y-155964287D02*
X204550828Y-156107144D01*
X204550828Y-156107144D02*
X204622257Y-156250001D01*
X204622257Y-156250001D02*
X204693685Y-156321430D01*
X204693685Y-156321430D02*
X204836542Y-156392858D01*
X204836542Y-156392858D02*
X205122257Y-156464287D01*
X205122257Y-156464287D02*
X205479400Y-156464287D01*
X205479400Y-156464287D02*
X205765114Y-156392858D01*
X205765114Y-156392858D02*
X205907971Y-156321430D01*
X205907971Y-156321430D02*
X205979400Y-156250001D01*
X205979400Y-156250001D02*
X206050828Y-156107144D01*
X206050828Y-156107144D02*
X206050828Y-155964287D01*
X206050828Y-155964287D02*
X205979400Y-155821430D01*
X205979400Y-155821430D02*
X205907971Y-155750001D01*
X205907971Y-155750001D02*
X205765114Y-155678572D01*
X205765114Y-155678572D02*
X205479400Y-155607144D01*
X205479400Y-155607144D02*
X205122257Y-155607144D01*
X205122257Y-155607144D02*
X204836542Y-155678572D01*
X204836542Y-155678572D02*
X204693685Y-155750001D01*
X204693685Y-155750001D02*
X204622257Y-155821430D01*
X204622257Y-155821430D02*
X204550828Y-155964287D01*
D10*
X213119819Y-162991541D02*
X213119819Y-163658207D01*
X213119819Y-163658207D02*
X214119819Y-163229636D01*
X214024580Y-164039160D02*
X214072200Y-164086779D01*
X214072200Y-164086779D02*
X214119819Y-164039160D01*
X214119819Y-164039160D02*
X214072200Y-163991541D01*
X214072200Y-163991541D02*
X214024580Y-164039160D01*
X214024580Y-164039160D02*
X214119819Y-164039160D01*
X213215057Y-164467731D02*
X213167438Y-164515350D01*
X213167438Y-164515350D02*
X213119819Y-164610588D01*
X213119819Y-164610588D02*
X213119819Y-164848683D01*
X213119819Y-164848683D02*
X213167438Y-164943921D01*
X213167438Y-164943921D02*
X213215057Y-164991540D01*
X213215057Y-164991540D02*
X213310295Y-165039159D01*
X213310295Y-165039159D02*
X213405533Y-165039159D01*
X213405533Y-165039159D02*
X213548390Y-164991540D01*
X213548390Y-164991540D02*
X214119819Y-164420112D01*
X214119819Y-164420112D02*
X214119819Y-165039159D01*
X213119819Y-165324874D02*
X214119819Y-165658207D01*
X214119819Y-165658207D02*
X213119819Y-165991540D01*
X187960839Y-114334104D02*
X187484649Y-114334104D01*
X188056077Y-114619819D02*
X187722744Y-113619819D01*
X187722744Y-113619819D02*
X187389411Y-114619819D01*
X187056077Y-113619819D02*
X187056077Y-114429342D01*
X187056077Y-114429342D02*
X187008458Y-114524580D01*
X187008458Y-114524580D02*
X186960839Y-114572200D01*
X186960839Y-114572200D02*
X186865601Y-114619819D01*
X186865601Y-114619819D02*
X186675125Y-114619819D01*
X186675125Y-114619819D02*
X186579887Y-114572200D01*
X186579887Y-114572200D02*
X186532268Y-114524580D01*
X186532268Y-114524580D02*
X186484649Y-114429342D01*
X186484649Y-114429342D02*
X186484649Y-113619819D01*
X186103696Y-113619819D02*
X185437030Y-114619819D01*
X185437030Y-113619819D02*
X186103696Y-114619819D01*
X183770363Y-114619819D02*
X184341791Y-114619819D01*
X184056077Y-114619819D02*
X184056077Y-113619819D01*
X184056077Y-113619819D02*
X184151315Y-113762676D01*
X184151315Y-113762676D02*
X184246553Y-113857914D01*
X184246553Y-113857914D02*
X184341791Y-113905533D01*
X226710839Y-143822200D02*
X226567982Y-143869819D01*
X226567982Y-143869819D02*
X226329887Y-143869819D01*
X226329887Y-143869819D02*
X226234649Y-143822200D01*
X226234649Y-143822200D02*
X226187030Y-143774580D01*
X226187030Y-143774580D02*
X226139411Y-143679342D01*
X226139411Y-143679342D02*
X226139411Y-143584104D01*
X226139411Y-143584104D02*
X226187030Y-143488866D01*
X226187030Y-143488866D02*
X226234649Y-143441247D01*
X226234649Y-143441247D02*
X226329887Y-143393628D01*
X226329887Y-143393628D02*
X226520363Y-143346009D01*
X226520363Y-143346009D02*
X226615601Y-143298390D01*
X226615601Y-143298390D02*
X226663220Y-143250771D01*
X226663220Y-143250771D02*
X226710839Y-143155533D01*
X226710839Y-143155533D02*
X226710839Y-143060295D01*
X226710839Y-143060295D02*
X226663220Y-142965057D01*
X226663220Y-142965057D02*
X226615601Y-142917438D01*
X226615601Y-142917438D02*
X226520363Y-142869819D01*
X226520363Y-142869819D02*
X226282268Y-142869819D01*
X226282268Y-142869819D02*
X226139411Y-142917438D01*
X225710839Y-143869819D02*
X225710839Y-142869819D01*
X225234649Y-143869819D02*
X225234649Y-142869819D01*
X225234649Y-142869819D02*
X224996554Y-142869819D01*
X224996554Y-142869819D02*
X224853697Y-142917438D01*
X224853697Y-142917438D02*
X224758459Y-143012676D01*
X224758459Y-143012676D02*
X224710840Y-143107914D01*
X224710840Y-143107914D02*
X224663221Y-143298390D01*
X224663221Y-143298390D02*
X224663221Y-143441247D01*
X224663221Y-143441247D02*
X224710840Y-143631723D01*
X224710840Y-143631723D02*
X224758459Y-143726961D01*
X224758459Y-143726961D02*
X224853697Y-143822200D01*
X224853697Y-143822200D02*
X224996554Y-143869819D01*
X224996554Y-143869819D02*
X225234649Y-143869819D01*
X224234649Y-143346009D02*
X223901316Y-143346009D01*
X223758459Y-143869819D02*
X224234649Y-143869819D01*
X224234649Y-143869819D02*
X224234649Y-142869819D01*
X224234649Y-142869819D02*
X223758459Y-142869819D01*
X222091792Y-143869819D02*
X222567982Y-143869819D01*
X222567982Y-143869819D02*
X222567982Y-142869819D01*
X221758458Y-143869819D02*
X221758458Y-142869819D01*
X220758459Y-142917438D02*
X220853697Y-142869819D01*
X220853697Y-142869819D02*
X220996554Y-142869819D01*
X220996554Y-142869819D02*
X221139411Y-142917438D01*
X221139411Y-142917438D02*
X221234649Y-143012676D01*
X221234649Y-143012676D02*
X221282268Y-143107914D01*
X221282268Y-143107914D02*
X221329887Y-143298390D01*
X221329887Y-143298390D02*
X221329887Y-143441247D01*
X221329887Y-143441247D02*
X221282268Y-143631723D01*
X221282268Y-143631723D02*
X221234649Y-143726961D01*
X221234649Y-143726961D02*
X221139411Y-143822200D01*
X221139411Y-143822200D02*
X220996554Y-143869819D01*
X220996554Y-143869819D02*
X220901316Y-143869819D01*
X220901316Y-143869819D02*
X220758459Y-143822200D01*
X220758459Y-143822200D02*
X220710840Y-143774580D01*
X220710840Y-143774580D02*
X220710840Y-143441247D01*
X220710840Y-143441247D02*
X220901316Y-143441247D01*
X220282268Y-143869819D02*
X220282268Y-142869819D01*
X220282268Y-143346009D02*
X219710840Y-143346009D01*
X219710840Y-143869819D02*
X219710840Y-142869819D01*
X219377506Y-142869819D02*
X218806078Y-142869819D01*
X219091792Y-143869819D02*
X219091792Y-142869819D01*
X210369819Y-163562969D02*
X210369819Y-163086779D01*
X210369819Y-163086779D02*
X210846009Y-163039160D01*
X210846009Y-163039160D02*
X210798390Y-163086779D01*
X210798390Y-163086779D02*
X210750771Y-163182017D01*
X210750771Y-163182017D02*
X210750771Y-163420112D01*
X210750771Y-163420112D02*
X210798390Y-163515350D01*
X210798390Y-163515350D02*
X210846009Y-163562969D01*
X210846009Y-163562969D02*
X210941247Y-163610588D01*
X210941247Y-163610588D02*
X211179342Y-163610588D01*
X211179342Y-163610588D02*
X211274580Y-163562969D01*
X211274580Y-163562969D02*
X211322200Y-163515350D01*
X211322200Y-163515350D02*
X211369819Y-163420112D01*
X211369819Y-163420112D02*
X211369819Y-163182017D01*
X211369819Y-163182017D02*
X211322200Y-163086779D01*
X211322200Y-163086779D02*
X211274580Y-163039160D01*
X210369819Y-163896303D02*
X211369819Y-164229636D01*
X211369819Y-164229636D02*
X210369819Y-164562969D01*
X223869819Y-144241541D02*
X223869819Y-144908207D01*
X223869819Y-144908207D02*
X224869819Y-144479636D01*
X224774580Y-145289160D02*
X224822200Y-145336779D01*
X224822200Y-145336779D02*
X224869819Y-145289160D01*
X224869819Y-145289160D02*
X224822200Y-145241541D01*
X224822200Y-145241541D02*
X224774580Y-145289160D01*
X224774580Y-145289160D02*
X224869819Y-145289160D01*
X223965057Y-145717731D02*
X223917438Y-145765350D01*
X223917438Y-145765350D02*
X223869819Y-145860588D01*
X223869819Y-145860588D02*
X223869819Y-146098683D01*
X223869819Y-146098683D02*
X223917438Y-146193921D01*
X223917438Y-146193921D02*
X223965057Y-146241540D01*
X223965057Y-146241540D02*
X224060295Y-146289159D01*
X224060295Y-146289159D02*
X224155533Y-146289159D01*
X224155533Y-146289159D02*
X224298390Y-146241540D01*
X224298390Y-146241540D02*
X224869819Y-145670112D01*
X224869819Y-145670112D02*
X224869819Y-146289159D01*
X223869819Y-146574874D02*
X224869819Y-146908207D01*
X224869819Y-146908207D02*
X223869819Y-147241540D01*
X221333333Y-159154819D02*
X221333333Y-159869104D01*
X221333333Y-159869104D02*
X221380952Y-160011961D01*
X221380952Y-160011961D02*
X221476190Y-160107200D01*
X221476190Y-160107200D02*
X221619047Y-160154819D01*
X221619047Y-160154819D02*
X221714285Y-160154819D01*
X220857142Y-160154819D02*
X220857142Y-159154819D01*
X220857142Y-159154819D02*
X220476190Y-159154819D01*
X220476190Y-159154819D02*
X220380952Y-159202438D01*
X220380952Y-159202438D02*
X220333333Y-159250057D01*
X220333333Y-159250057D02*
X220285714Y-159345295D01*
X220285714Y-159345295D02*
X220285714Y-159488152D01*
X220285714Y-159488152D02*
X220333333Y-159583390D01*
X220333333Y-159583390D02*
X220380952Y-159631009D01*
X220380952Y-159631009D02*
X220476190Y-159678628D01*
X220476190Y-159678628D02*
X220857142Y-159678628D01*
X219428571Y-159154819D02*
X219619047Y-159154819D01*
X219619047Y-159154819D02*
X219714285Y-159202438D01*
X219714285Y-159202438D02*
X219761904Y-159250057D01*
X219761904Y-159250057D02*
X219857142Y-159392914D01*
X219857142Y-159392914D02*
X219904761Y-159583390D01*
X219904761Y-159583390D02*
X219904761Y-159964342D01*
X219904761Y-159964342D02*
X219857142Y-160059580D01*
X219857142Y-160059580D02*
X219809523Y-160107200D01*
X219809523Y-160107200D02*
X219714285Y-160154819D01*
X219714285Y-160154819D02*
X219523809Y-160154819D01*
X219523809Y-160154819D02*
X219428571Y-160107200D01*
X219428571Y-160107200D02*
X219380952Y-160059580D01*
X219380952Y-160059580D02*
X219333333Y-159964342D01*
X219333333Y-159964342D02*
X219333333Y-159726247D01*
X219333333Y-159726247D02*
X219380952Y-159631009D01*
X219380952Y-159631009D02*
X219428571Y-159583390D01*
X219428571Y-159583390D02*
X219523809Y-159535771D01*
X219523809Y-159535771D02*
X219714285Y-159535771D01*
X219714285Y-159535771D02*
X219809523Y-159583390D01*
X219809523Y-159583390D02*
X219857142Y-159631009D01*
X219857142Y-159631009D02*
X219904761Y-159726247D01*
X218233332Y-160954819D02*
X217614285Y-160954819D01*
X217614285Y-160954819D02*
X217947618Y-161335771D01*
X217947618Y-161335771D02*
X217804761Y-161335771D01*
X217804761Y-161335771D02*
X217709523Y-161383390D01*
X217709523Y-161383390D02*
X217661904Y-161431009D01*
X217661904Y-161431009D02*
X217614285Y-161526247D01*
X217614285Y-161526247D02*
X217614285Y-161764342D01*
X217614285Y-161764342D02*
X217661904Y-161859580D01*
X217661904Y-161859580D02*
X217709523Y-161907200D01*
X217709523Y-161907200D02*
X217804761Y-161954819D01*
X217804761Y-161954819D02*
X218090475Y-161954819D01*
X218090475Y-161954819D02*
X218185713Y-161907200D01*
X218185713Y-161907200D02*
X218233332Y-161859580D01*
X222814285Y-161954819D02*
X223385713Y-161954819D01*
X223099999Y-161954819D02*
X223099999Y-160954819D01*
X223099999Y-160954819D02*
X223195237Y-161097676D01*
X223195237Y-161097676D02*
X223290475Y-161192914D01*
X223290475Y-161192914D02*
X223385713Y-161240533D01*
X184204819Y-109416666D02*
X184919104Y-109416666D01*
X184919104Y-109416666D02*
X185061961Y-109369047D01*
X185061961Y-109369047D02*
X185157200Y-109273809D01*
X185157200Y-109273809D02*
X185204819Y-109130952D01*
X185204819Y-109130952D02*
X185204819Y-109035714D01*
X185204819Y-109892857D02*
X184204819Y-109892857D01*
X184204819Y-109892857D02*
X184204819Y-110273809D01*
X184204819Y-110273809D02*
X184252438Y-110369047D01*
X184252438Y-110369047D02*
X184300057Y-110416666D01*
X184300057Y-110416666D02*
X184395295Y-110464285D01*
X184395295Y-110464285D02*
X184538152Y-110464285D01*
X184538152Y-110464285D02*
X184633390Y-110416666D01*
X184633390Y-110416666D02*
X184681009Y-110369047D01*
X184681009Y-110369047D02*
X184728628Y-110273809D01*
X184728628Y-110273809D02*
X184728628Y-109892857D01*
X184204819Y-110797619D02*
X184204819Y-111416666D01*
X184204819Y-111416666D02*
X184585771Y-111083333D01*
X184585771Y-111083333D02*
X184585771Y-111226190D01*
X184585771Y-111226190D02*
X184633390Y-111321428D01*
X184633390Y-111321428D02*
X184681009Y-111369047D01*
X184681009Y-111369047D02*
X184776247Y-111416666D01*
X184776247Y-111416666D02*
X185014342Y-111416666D01*
X185014342Y-111416666D02*
X185109580Y-111369047D01*
X185109580Y-111369047D02*
X185157200Y-111321428D01*
X185157200Y-111321428D02*
X185204819Y-111226190D01*
X185204819Y-111226190D02*
X185204819Y-110940476D01*
X185204819Y-110940476D02*
X185157200Y-110845238D01*
X185157200Y-110845238D02*
X185109580Y-110797619D01*
X186954819Y-113135714D02*
X186954819Y-112564286D01*
X186954819Y-112850000D02*
X185954819Y-112850000D01*
X185954819Y-112850000D02*
X186097676Y-112754762D01*
X186097676Y-112754762D02*
X186192914Y-112659524D01*
X186192914Y-112659524D02*
X186240533Y-112564286D01*
X185954819Y-107316667D02*
X185954819Y-107935714D01*
X185954819Y-107935714D02*
X186335771Y-107602381D01*
X186335771Y-107602381D02*
X186335771Y-107745238D01*
X186335771Y-107745238D02*
X186383390Y-107840476D01*
X186383390Y-107840476D02*
X186431009Y-107888095D01*
X186431009Y-107888095D02*
X186526247Y-107935714D01*
X186526247Y-107935714D02*
X186764342Y-107935714D01*
X186764342Y-107935714D02*
X186859580Y-107888095D01*
X186859580Y-107888095D02*
X186907200Y-107840476D01*
X186907200Y-107840476D02*
X186954819Y-107745238D01*
X186954819Y-107745238D02*
X186954819Y-107459524D01*
X186954819Y-107459524D02*
X186907200Y-107364286D01*
X186907200Y-107364286D02*
X186859580Y-107316667D01*
X162583333Y-156904819D02*
X162583333Y-157619104D01*
X162583333Y-157619104D02*
X162630952Y-157761961D01*
X162630952Y-157761961D02*
X162726190Y-157857200D01*
X162726190Y-157857200D02*
X162869047Y-157904819D01*
X162869047Y-157904819D02*
X162964285Y-157904819D01*
X162107142Y-157904819D02*
X162107142Y-156904819D01*
X162107142Y-156904819D02*
X161726190Y-156904819D01*
X161726190Y-156904819D02*
X161630952Y-156952438D01*
X161630952Y-156952438D02*
X161583333Y-157000057D01*
X161583333Y-157000057D02*
X161535714Y-157095295D01*
X161535714Y-157095295D02*
X161535714Y-157238152D01*
X161535714Y-157238152D02*
X161583333Y-157333390D01*
X161583333Y-157333390D02*
X161630952Y-157381009D01*
X161630952Y-157381009D02*
X161726190Y-157428628D01*
X161726190Y-157428628D02*
X162107142Y-157428628D01*
X161154761Y-157000057D02*
X161107142Y-156952438D01*
X161107142Y-156952438D02*
X161011904Y-156904819D01*
X161011904Y-156904819D02*
X160773809Y-156904819D01*
X160773809Y-156904819D02*
X160678571Y-156952438D01*
X160678571Y-156952438D02*
X160630952Y-157000057D01*
X160630952Y-157000057D02*
X160583333Y-157095295D01*
X160583333Y-157095295D02*
X160583333Y-157190533D01*
X160583333Y-157190533D02*
X160630952Y-157333390D01*
X160630952Y-157333390D02*
X161202380Y-157904819D01*
X161202380Y-157904819D02*
X160583333Y-157904819D01*
X224283333Y-149754819D02*
X224283333Y-150469104D01*
X224283333Y-150469104D02*
X224330952Y-150611961D01*
X224330952Y-150611961D02*
X224426190Y-150707200D01*
X224426190Y-150707200D02*
X224569047Y-150754819D01*
X224569047Y-150754819D02*
X224664285Y-150754819D01*
X223807142Y-150754819D02*
X223807142Y-149754819D01*
X223807142Y-149754819D02*
X223426190Y-149754819D01*
X223426190Y-149754819D02*
X223330952Y-149802438D01*
X223330952Y-149802438D02*
X223283333Y-149850057D01*
X223283333Y-149850057D02*
X223235714Y-149945295D01*
X223235714Y-149945295D02*
X223235714Y-150088152D01*
X223235714Y-150088152D02*
X223283333Y-150183390D01*
X223283333Y-150183390D02*
X223330952Y-150231009D01*
X223330952Y-150231009D02*
X223426190Y-150278628D01*
X223426190Y-150278628D02*
X223807142Y-150278628D01*
X222330952Y-149754819D02*
X222807142Y-149754819D01*
X222807142Y-149754819D02*
X222854761Y-150231009D01*
X222854761Y-150231009D02*
X222807142Y-150183390D01*
X222807142Y-150183390D02*
X222711904Y-150135771D01*
X222711904Y-150135771D02*
X222473809Y-150135771D01*
X222473809Y-150135771D02*
X222378571Y-150183390D01*
X222378571Y-150183390D02*
X222330952Y-150231009D01*
X222330952Y-150231009D02*
X222283333Y-150326247D01*
X222283333Y-150326247D02*
X222283333Y-150564342D01*
X222283333Y-150564342D02*
X222330952Y-150659580D01*
X222330952Y-150659580D02*
X222378571Y-150707200D01*
X222378571Y-150707200D02*
X222473809Y-150754819D01*
X222473809Y-150754819D02*
X222711904Y-150754819D01*
X222711904Y-150754819D02*
X222807142Y-150707200D01*
X222807142Y-150707200D02*
X222854761Y-150659580D01*
X220564285Y-148954819D02*
X221135713Y-148954819D01*
X220849999Y-148954819D02*
X220849999Y-147954819D01*
X220849999Y-147954819D02*
X220945237Y-148097676D01*
X220945237Y-148097676D02*
X221040475Y-148192914D01*
X221040475Y-148192914D02*
X221135713Y-148240533D01*
X226450332Y-147954819D02*
X225831285Y-147954819D01*
X225831285Y-147954819D02*
X226164618Y-148335771D01*
X226164618Y-148335771D02*
X226021761Y-148335771D01*
X226021761Y-148335771D02*
X225926523Y-148383390D01*
X225926523Y-148383390D02*
X225878904Y-148431009D01*
X225878904Y-148431009D02*
X225831285Y-148526247D01*
X225831285Y-148526247D02*
X225831285Y-148764342D01*
X225831285Y-148764342D02*
X225878904Y-148859580D01*
X225878904Y-148859580D02*
X225926523Y-148907200D01*
X225926523Y-148907200D02*
X226021761Y-148954819D01*
X226021761Y-148954819D02*
X226307475Y-148954819D01*
X226307475Y-148954819D02*
X226402713Y-148907200D01*
X226402713Y-148907200D02*
X226450332Y-148859580D01*
X213333333Y-159154819D02*
X213333333Y-159869104D01*
X213333333Y-159869104D02*
X213380952Y-160011961D01*
X213380952Y-160011961D02*
X213476190Y-160107200D01*
X213476190Y-160107200D02*
X213619047Y-160154819D01*
X213619047Y-160154819D02*
X213714285Y-160154819D01*
X212857142Y-160154819D02*
X212857142Y-159154819D01*
X212857142Y-159154819D02*
X212476190Y-159154819D01*
X212476190Y-159154819D02*
X212380952Y-159202438D01*
X212380952Y-159202438D02*
X212333333Y-159250057D01*
X212333333Y-159250057D02*
X212285714Y-159345295D01*
X212285714Y-159345295D02*
X212285714Y-159488152D01*
X212285714Y-159488152D02*
X212333333Y-159583390D01*
X212333333Y-159583390D02*
X212380952Y-159631009D01*
X212380952Y-159631009D02*
X212476190Y-159678628D01*
X212476190Y-159678628D02*
X212857142Y-159678628D01*
X211952380Y-159154819D02*
X211285714Y-159154819D01*
X211285714Y-159154819D02*
X211714285Y-160154819D01*
X214814285Y-161954819D02*
X215385713Y-161954819D01*
X215099999Y-161954819D02*
X215099999Y-160954819D01*
X215099999Y-160954819D02*
X215195237Y-161097676D01*
X215195237Y-161097676D02*
X215290475Y-161192914D01*
X215290475Y-161192914D02*
X215385713Y-161240533D01*
X210233332Y-160954819D02*
X209614285Y-160954819D01*
X209614285Y-160954819D02*
X209947618Y-161335771D01*
X209947618Y-161335771D02*
X209804761Y-161335771D01*
X209804761Y-161335771D02*
X209709523Y-161383390D01*
X209709523Y-161383390D02*
X209661904Y-161431009D01*
X209661904Y-161431009D02*
X209614285Y-161526247D01*
X209614285Y-161526247D02*
X209614285Y-161764342D01*
X209614285Y-161764342D02*
X209661904Y-161859580D01*
X209661904Y-161859580D02*
X209709523Y-161907200D01*
X209709523Y-161907200D02*
X209804761Y-161954819D01*
X209804761Y-161954819D02*
X210090475Y-161954819D01*
X210090475Y-161954819D02*
X210185713Y-161907200D01*
X210185713Y-161907200D02*
X210233332Y-161859580D01*
X200114819Y-110418666D02*
X200829104Y-110418666D01*
X200829104Y-110418666D02*
X200971961Y-110371047D01*
X200971961Y-110371047D02*
X201067200Y-110275809D01*
X201067200Y-110275809D02*
X201114819Y-110132952D01*
X201114819Y-110132952D02*
X201114819Y-110037714D01*
X201114819Y-110894857D02*
X200114819Y-110894857D01*
X200114819Y-110894857D02*
X200114819Y-111275809D01*
X200114819Y-111275809D02*
X200162438Y-111371047D01*
X200162438Y-111371047D02*
X200210057Y-111418666D01*
X200210057Y-111418666D02*
X200305295Y-111466285D01*
X200305295Y-111466285D02*
X200448152Y-111466285D01*
X200448152Y-111466285D02*
X200543390Y-111418666D01*
X200543390Y-111418666D02*
X200591009Y-111371047D01*
X200591009Y-111371047D02*
X200638628Y-111275809D01*
X200638628Y-111275809D02*
X200638628Y-110894857D01*
X200448152Y-112323428D02*
X201114819Y-112323428D01*
X200067200Y-112085333D02*
X200781485Y-111847238D01*
X200781485Y-111847238D02*
X200781485Y-112466285D01*
X201954819Y-107816667D02*
X201954819Y-108435714D01*
X201954819Y-108435714D02*
X202335771Y-108102381D01*
X202335771Y-108102381D02*
X202335771Y-108245238D01*
X202335771Y-108245238D02*
X202383390Y-108340476D01*
X202383390Y-108340476D02*
X202431009Y-108388095D01*
X202431009Y-108388095D02*
X202526247Y-108435714D01*
X202526247Y-108435714D02*
X202764342Y-108435714D01*
X202764342Y-108435714D02*
X202859580Y-108388095D01*
X202859580Y-108388095D02*
X202907200Y-108340476D01*
X202907200Y-108340476D02*
X202954819Y-108245238D01*
X202954819Y-108245238D02*
X202954819Y-107959524D01*
X202954819Y-107959524D02*
X202907200Y-107864286D01*
X202907200Y-107864286D02*
X202859580Y-107816667D01*
X202954819Y-113635714D02*
X202954819Y-113064286D01*
X202954819Y-113350000D02*
X201954819Y-113350000D01*
X201954819Y-113350000D02*
X202097676Y-113254762D01*
X202097676Y-113254762D02*
X202192914Y-113159524D01*
X202192914Y-113159524D02*
X202240533Y-113064286D01*
X157083333Y-160504819D02*
X157083333Y-161219104D01*
X157083333Y-161219104D02*
X157130952Y-161361961D01*
X157130952Y-161361961D02*
X157226190Y-161457200D01*
X157226190Y-161457200D02*
X157369047Y-161504819D01*
X157369047Y-161504819D02*
X157464285Y-161504819D01*
X156607142Y-161504819D02*
X156607142Y-160504819D01*
X156607142Y-160504819D02*
X156226190Y-160504819D01*
X156226190Y-160504819D02*
X156130952Y-160552438D01*
X156130952Y-160552438D02*
X156083333Y-160600057D01*
X156083333Y-160600057D02*
X156035714Y-160695295D01*
X156035714Y-160695295D02*
X156035714Y-160838152D01*
X156035714Y-160838152D02*
X156083333Y-160933390D01*
X156083333Y-160933390D02*
X156130952Y-160981009D01*
X156130952Y-160981009D02*
X156226190Y-161028628D01*
X156226190Y-161028628D02*
X156607142Y-161028628D01*
X155083333Y-161504819D02*
X155654761Y-161504819D01*
X155369047Y-161504819D02*
X155369047Y-160504819D01*
X155369047Y-160504819D02*
X155464285Y-160647676D01*
X155464285Y-160647676D02*
X155559523Y-160742914D01*
X155559523Y-160742914D02*
X155654761Y-160790533D01*
D12*
%TO.C,JP6*%
X218450000Y-161200000D02*
X218450000Y-161800000D01*
X219100000Y-162500000D02*
X221900000Y-162500000D01*
X221900000Y-160500000D02*
X219100000Y-160500000D01*
X222550000Y-161800000D02*
X222550000Y-161200000D01*
X218450000Y-161200000D02*
G75*
G02*
X219150000Y-160500000I700000J0D01*
G01*
X219150000Y-162500000D02*
G75*
G02*
X218450000Y-161800000I0J700000D01*
G01*
X221850000Y-160500000D02*
G75*
G02*
X222550000Y-161200000I1J-699999D01*
G01*
X222550000Y-161800000D02*
G75*
G02*
X221850000Y-162500000I-699999J-1D01*
G01*
%TO.C,JP3*%
X185500000Y-108850000D02*
X185500000Y-111650000D01*
X186200000Y-112300000D02*
X186800000Y-112300000D01*
X186800000Y-108200000D02*
X186200000Y-108200000D01*
X187500000Y-111650000D02*
X187500000Y-108850000D01*
X185500000Y-108900000D02*
G75*
G02*
X186200000Y-108200000I700000J0D01*
G01*
X186200000Y-112300000D02*
G75*
G02*
X185500000Y-111600000I-1J699999D01*
G01*
X186800000Y-108200000D02*
G75*
G02*
X187500000Y-108900000I0J-700000D01*
G01*
X187500000Y-111600000D02*
G75*
G02*
X186800000Y-112300000I-699999J-1D01*
G01*
%TO.C,JP2*%
X158850000Y-158950000D02*
X158850000Y-159550000D01*
X159550000Y-160250000D02*
X160950000Y-160250000D01*
X160950000Y-158250000D02*
X159550000Y-158250000D01*
X161650000Y-159550000D02*
X161650000Y-158950000D01*
X158850000Y-158950000D02*
G75*
G02*
X159550000Y-158250000I700000J0D01*
G01*
X159550000Y-160250000D02*
G75*
G02*
X158850000Y-159550000I0J700000D01*
G01*
X160950000Y-158250000D02*
G75*
G02*
X161650000Y-158950000I1J-699999D01*
G01*
X161650000Y-159550000D02*
G75*
G02*
X160950000Y-160250000I-699999J-1D01*
G01*
%TO.C,JP5*%
X221400000Y-148200000D02*
X221400000Y-148800000D01*
X222050000Y-149500000D02*
X224850000Y-149500000D01*
X224850000Y-147500000D02*
X222050000Y-147500000D01*
X225500000Y-148800000D02*
X225500000Y-148200000D01*
X221400000Y-148200000D02*
G75*
G02*
X222100000Y-147500000I699999J1D01*
G01*
X222100000Y-149500000D02*
G75*
G02*
X221400000Y-148800000I-1J699999D01*
G01*
X224800000Y-147500000D02*
G75*
G02*
X225500000Y-148200000I0J-700000D01*
G01*
X225500000Y-148800000D02*
G75*
G02*
X224800000Y-149500000I-700000J0D01*
G01*
%TO.C,JP7*%
X210450000Y-161200000D02*
X210450000Y-161800000D01*
X211100000Y-162500000D02*
X213900000Y-162500000D01*
X213900000Y-160500000D02*
X211100000Y-160500000D01*
X214550000Y-161800000D02*
X214550000Y-161200000D01*
X210450000Y-161200000D02*
G75*
G02*
X211150000Y-160500000I700000J0D01*
G01*
X211150000Y-162500000D02*
G75*
G02*
X210450000Y-161800000I0J700000D01*
G01*
X213850000Y-160500000D02*
G75*
G02*
X214550000Y-161200000I1J-699999D01*
G01*
X214550000Y-161800000D02*
G75*
G02*
X213850000Y-162500000I-699999J-1D01*
G01*
%TO.C,JP4*%
X201500000Y-109350000D02*
X201500000Y-112150000D01*
X202200000Y-112800000D02*
X202800000Y-112800000D01*
X202800000Y-108700000D02*
X202200000Y-108700000D01*
X203500000Y-112150000D02*
X203500000Y-109350000D01*
X201500000Y-109400000D02*
G75*
G02*
X202200000Y-108700000I700000J0D01*
G01*
X202200000Y-112800000D02*
G75*
G02*
X201500000Y-112100000I-1J699999D01*
G01*
X202800000Y-108700000D02*
G75*
G02*
X203500000Y-109400000I0J-700000D01*
G01*
X203500000Y-112100000D02*
G75*
G02*
X202800000Y-112800000I-699999J-1D01*
G01*
%TO.C,JP1*%
X154850000Y-158950000D02*
X154850000Y-159550000D01*
X155550000Y-160250000D02*
X156950000Y-160250000D01*
X156950000Y-158250000D02*
X155550000Y-158250000D01*
X157650000Y-159550000D02*
X157650000Y-158950000D01*
X154850000Y-158950000D02*
G75*
G02*
X155550000Y-158250000I699999J1D01*
G01*
X155550000Y-160250000D02*
G75*
G02*
X154850000Y-159550000I-1J699999D01*
G01*
X156950000Y-158250000D02*
G75*
G02*
X157650000Y-158950000I0J-700000D01*
G01*
X157650000Y-159550000D02*
G75*
G02*
X156950000Y-160250000I-700000J0D01*
G01*
%TD*%
M02*
